<?xml version="1.0" encoding="utf-8" standalone="no"?>
<!DOCTYPE svg PUBLIC "-//W3C//DTD SVG 1.1//EN"
  "http://www.w3.org/Graphics/SVG/1.1/DTD/svg11.dtd">
<!-- Created with matplotlib (https://matplotlib.org/) -->
<svg height="576pt" version="1.1" viewBox="0 0 1152 576" width="1152pt" xmlns="http://www.w3.org/2000/svg" xmlns:xlink="http://www.w3.org/1999/xlink">
 <metadata>
  <rdf:RDF xmlns:cc="http://creativecommons.org/ns#" xmlns:dc="http://purl.org/dc/elements/1.1/" xmlns:rdf="http://www.w3.org/1999/02/22-rdf-syntax-ns#">
   <cc:Work>
    <dc:type rdf:resource="http://purl.org/dc/dcmitype/StillImage"/>
    <dc:date>2021-04-05T11:51:33.358957</dc:date>
    <dc:format>image/svg+xml</dc:format>
    <dc:creator>
     <cc:Agent>
      <dc:title>Matplotlib v3.3.2, https://matplotlib.org/</dc:title>
     </cc:Agent>
    </dc:creator>
   </cc:Work>
  </rdf:RDF>
 </metadata>
 <defs>
  <style type="text/css">*{stroke-linecap:butt;stroke-linejoin:round;}</style>
 </defs>
 <g id="figure_1">
  <g id="patch_1">
   <path d="M 0 576 
L 1152 576 
L 1152 0 
L 0 0 
z
" style="fill:#ffffff;"/>
  </g>
  <g id="axes_1">
   <g id="matplotlib.axis_1"/>
   <g id="matplotlib.axis_2"/>
   <g id="patch_2">
    <path d="M 384.069997 285.193538 
C 384.069997 273.79496 382.374611 262.459512 379.039559 251.559741 
C 375.704507 240.659971 370.76673 230.316611 364.388513 220.869606 
C 358.010296 211.4226 350.262287 202.97659 341.399132 195.80916 
C 332.535977 188.64173 322.65585 182.832271 312.083469 178.571717 
C 301.511087 174.311162 290.363559 171.646705 279.007256 170.665914 
C 267.650953 169.685123 256.211665 170.398862 245.065354 172.783674 
C 233.919044 175.168486 223.189174 179.197955 213.228391 184.739649 
C 203.267608 190.281343 194.186244 197.273879 186.282766 205.48744 
C 178.379288 213.701002 171.741239 223.044612 166.586785 233.211183 
C 161.432331 243.377754 157.818566 254.254676 155.864259 265.484469 
C 153.909952 276.714262 153.63675 288.172538 155.053632 299.482711 
C 156.470515 310.792884 159.561787 321.829675 164.225852 332.230351 
C 168.889918 342.631028 175.075113 352.280384 182.578158 360.861287 
C 190.081203 369.442189 198.818988 376.85959 208.504339 382.869711 
C 218.18969 388.879831 228.715325 393.416099 239.735311 396.329426 
C 250.755297 399.242753 262.14757 400.50087 273.537712 400.062426 
L 269.116037 285.193538 
L 384.069997 285.193538 
z
" style="fill:#093141;opacity:0.5;stroke:#093141;stroke-linejoin:miter;"/>
   </g>
   <g id="patch_3">
    <path d="M 281.821039 408.033036 
C 311.510865 406.890178 339.631239 394.279915 360.23264 372.87024 
C 380.834041 351.460566 392.353327 322.87595 392.353324 293.164136 
L 277.399365 293.164147 
L 281.821039 408.033036 
z
" style="fill:#23373b;opacity:0.5;stroke:#23373b;stroke-linejoin:miter;"/>
   </g>
   <g id="patch_4">
    <path d="M 386.369076 282.894458 
C 386.369076 271.495881 384.67369 260.160432 381.338638 249.260662 
C 378.003586 238.360891 373.065809 228.017532 366.687592 218.570526 
C 360.309375 209.123521 352.561366 200.67751 343.698211 193.51008 
C 334.835056 186.342651 324.954929 180.533192 314.382548 176.272638 
C 303.810166 172.012083 292.662638 169.347626 281.306335 168.366835 
C 269.950032 167.386044 258.510744 168.099783 247.364434 170.484595 
C 236.218123 172.869407 225.488253 176.898876 215.52747 182.44057 
C 205.566687 187.982264 196.485323 194.974799 188.581845 203.188361 
C 180.678367 211.401923 174.040318 220.745533 168.885864 230.912104 
C 163.73141 241.078675 160.117645 251.955597 158.163338 263.18539 
C 156.209031 274.415183 155.935829 285.873459 157.352711 297.183632 
C 158.769594 308.493805 161.860866 319.530596 166.524932 329.931272 
C 171.188997 340.331948 177.374193 349.981305 184.877237 358.562207 
C 192.380282 367.14311 201.118067 374.560511 210.803418 380.570631 
C 220.488769 386.580752 231.014404 391.11702 242.03439 394.030347 
C 253.054376 396.943674 264.446649 398.20179 275.836791 397.763347 
L 271.415117 282.894458 
L 386.369076 282.894458 
z
" style="fill:#1da2d8;stroke:#808080;stroke-linejoin:miter;"/>
   </g>
   <g id="patch_5">
    <path d="M 284.120118 405.733956 
C 313.809944 404.591099 341.930318 391.980836 362.531719 370.571161 
C 383.13312 349.161486 394.652406 320.576871 394.652404 290.865057 
L 279.698444 290.865068 
L 284.120118 405.733956 
z
" style="fill:#76b6c4;stroke:#808080;stroke-linejoin:miter;"/>
   </g>
   <g id="text_1">
    <!-- Non Fatal -->
    <g style="fill:#262626;" transform="translate(108.76844 199.483259)scale(0.165 -0.165)">
     <defs>
      <path d="M 7.625 0 
L 7.625 71.578125 
L 17.328125 71.578125 
L 54.9375 15.375 
L 54.9375 71.578125 
L 64.015625 71.578125 
L 64.015625 0 
L 54.296875 0 
L 16.703125 56.25 
L 16.703125 0 
z
" id="ArialMT-78"/>
      <path d="M 3.328125 25.921875 
Q 3.328125 40.328125 11.328125 47.265625 
Q 18.015625 53.03125 27.640625 53.03125 
Q 38.328125 53.03125 45.109375 46.015625 
Q 51.90625 39.015625 51.90625 26.65625 
Q 51.90625 16.65625 48.90625 10.90625 
Q 45.90625 5.171875 40.15625 2 
Q 34.421875 -1.171875 27.640625 -1.171875 
Q 16.75 -1.171875 10.03125 5.8125 
Q 3.328125 12.796875 3.328125 25.921875 
z
M 12.359375 25.921875 
Q 12.359375 15.96875 16.703125 11.015625 
Q 21.046875 6.0625 27.640625 6.0625 
Q 34.1875 6.0625 38.53125 11.03125 
Q 42.875 16.015625 42.875 26.21875 
Q 42.875 35.84375 38.5 40.796875 
Q 34.125 45.75 27.640625 45.75 
Q 21.046875 45.75 16.703125 40.8125 
Q 12.359375 35.890625 12.359375 25.921875 
z
" id="ArialMT-111"/>
      <path d="M 6.59375 0 
L 6.59375 51.859375 
L 14.5 51.859375 
L 14.5 44.484375 
Q 20.21875 53.03125 31 53.03125 
Q 35.6875 53.03125 39.625 51.34375 
Q 43.5625 49.65625 45.515625 46.921875 
Q 47.46875 44.1875 48.25 40.4375 
Q 48.734375 37.984375 48.734375 31.890625 
L 48.734375 0 
L 39.9375 0 
L 39.9375 31.546875 
Q 39.9375 36.921875 38.90625 39.578125 
Q 37.890625 42.234375 35.28125 43.8125 
Q 32.671875 45.40625 29.15625 45.40625 
Q 23.53125 45.40625 19.453125 41.84375 
Q 15.375 38.28125 15.375 28.328125 
L 15.375 0 
z
" id="ArialMT-110"/>
      <path id="ArialMT-32"/>
      <path d="M 8.203125 0 
L 8.203125 71.578125 
L 56.5 71.578125 
L 56.5 63.140625 
L 17.671875 63.140625 
L 17.671875 40.96875 
L 51.265625 40.96875 
L 51.265625 32.515625 
L 17.671875 32.515625 
L 17.671875 0 
z
" id="ArialMT-70"/>
      <path d="M 40.4375 6.390625 
Q 35.546875 2.25 31.03125 0.53125 
Q 26.515625 -1.171875 21.34375 -1.171875 
Q 12.796875 -1.171875 8.203125 3 
Q 3.609375 7.171875 3.609375 13.671875 
Q 3.609375 17.484375 5.34375 20.625 
Q 7.078125 23.78125 9.890625 25.6875 
Q 12.703125 27.59375 16.21875 28.5625 
Q 18.796875 29.25 24.03125 29.890625 
Q 34.671875 31.15625 39.703125 32.90625 
Q 39.75 34.71875 39.75 35.203125 
Q 39.75 40.578125 37.25 42.78125 
Q 33.890625 45.75 27.25 45.75 
Q 21.046875 45.75 18.09375 43.578125 
Q 15.140625 41.40625 13.71875 35.890625 
L 5.125 37.0625 
Q 6.296875 42.578125 8.984375 45.96875 
Q 11.671875 49.359375 16.75 51.1875 
Q 21.828125 53.03125 28.515625 53.03125 
Q 35.15625 53.03125 39.296875 51.46875 
Q 43.453125 49.90625 45.40625 47.53125 
Q 47.359375 45.171875 48.140625 41.546875 
Q 48.578125 39.3125 48.578125 33.453125 
L 48.578125 21.734375 
Q 48.578125 9.46875 49.140625 6.21875 
Q 49.703125 2.984375 51.375 0 
L 42.1875 0 
Q 40.828125 2.734375 40.4375 6.390625 
z
M 39.703125 26.03125 
Q 34.90625 24.078125 25.34375 22.703125 
Q 19.921875 21.921875 17.671875 20.9375 
Q 15.4375 19.96875 14.203125 18.09375 
Q 12.984375 16.21875 12.984375 13.921875 
Q 12.984375 10.40625 15.640625 8.0625 
Q 18.3125 5.71875 23.4375 5.71875 
Q 28.515625 5.71875 32.46875 7.9375 
Q 36.421875 10.15625 38.28125 14.015625 
Q 39.703125 17 39.703125 22.796875 
z
" id="ArialMT-97"/>
      <path d="M 25.78125 7.859375 
L 27.046875 0.09375 
Q 23.34375 -0.6875 20.40625 -0.6875 
Q 15.625 -0.6875 12.984375 0.828125 
Q 10.359375 2.34375 9.28125 4.8125 
Q 8.203125 7.28125 8.203125 15.1875 
L 8.203125 45.015625 
L 1.765625 45.015625 
L 1.765625 51.859375 
L 8.203125 51.859375 
L 8.203125 64.703125 
L 16.9375 69.96875 
L 16.9375 51.859375 
L 25.78125 51.859375 
L 25.78125 45.015625 
L 16.9375 45.015625 
L 16.9375 14.703125 
Q 16.9375 10.9375 17.40625 9.859375 
Q 17.875 8.796875 18.921875 8.15625 
Q 19.96875 7.515625 21.921875 7.515625 
Q 23.390625 7.515625 25.78125 7.859375 
z
" id="ArialMT-116"/>
      <path d="M 6.390625 0 
L 6.390625 71.578125 
L 15.1875 71.578125 
L 15.1875 0 
z
" id="ArialMT-108"/>
     </defs>
     <use xlink:href="#ArialMT-78"/>
     <use x="72.216797" xlink:href="#ArialMT-111"/>
     <use x="127.832031" xlink:href="#ArialMT-110"/>
     <use x="183.447266" xlink:href="#ArialMT-32"/>
     <use x="211.230469" xlink:href="#ArialMT-70"/>
     <use x="272.314453" xlink:href="#ArialMT-97"/>
     <use x="327.929688" xlink:href="#ArialMT-116"/>
     <use x="355.712891" xlink:href="#ArialMT-97"/>
     <use x="411.328125" xlink:href="#ArialMT-108"/>
    </g>
   </g>
   <g id="text_2">
    <!-- 75.6% -->
    <g style="fill:#262626;" transform="translate(196.197341 239.724081)scale(0.18 -0.18)">
     <defs>
      <path d="M 4.734375 62.203125 
L 4.734375 70.65625 
L 51.078125 70.65625 
L 51.078125 63.8125 
Q 44.234375 56.546875 37.515625 44.484375 
Q 30.8125 32.421875 27.15625 19.671875 
Q 24.515625 10.6875 23.78125 0 
L 14.75 0 
Q 14.890625 8.453125 18.0625 20.40625 
Q 21.234375 32.375 27.171875 43.484375 
Q 33.109375 54.59375 39.796875 62.203125 
z
" id="ArialMT-55"/>
      <path d="M 4.15625 18.75 
L 13.375 19.53125 
Q 14.40625 12.796875 18.140625 9.390625 
Q 21.875 6 27.15625 6 
Q 33.5 6 37.890625 10.78125 
Q 42.28125 15.578125 42.28125 23.484375 
Q 42.28125 31 38.0625 35.34375 
Q 33.84375 39.703125 27 39.703125 
Q 22.75 39.703125 19.328125 37.765625 
Q 15.921875 35.84375 13.96875 32.765625 
L 5.71875 33.84375 
L 12.640625 70.609375 
L 48.25 70.609375 
L 48.25 62.203125 
L 19.671875 62.203125 
L 15.828125 42.96875 
Q 22.265625 47.46875 29.34375 47.46875 
Q 38.71875 47.46875 45.15625 40.96875 
Q 51.609375 34.46875 51.609375 24.265625 
Q 51.609375 14.546875 45.953125 7.46875 
Q 39.0625 -1.21875 27.15625 -1.21875 
Q 17.390625 -1.21875 11.203125 4.25 
Q 5.03125 9.71875 4.15625 18.75 
z
" id="ArialMT-53"/>
      <path d="M 9.078125 0 
L 9.078125 10.015625 
L 19.09375 10.015625 
L 19.09375 0 
z
" id="ArialMT-46"/>
      <path d="M 49.75 54.046875 
L 41.015625 53.375 
Q 39.84375 58.546875 37.703125 60.890625 
Q 34.125 64.65625 28.90625 64.65625 
Q 24.703125 64.65625 21.53125 62.3125 
Q 17.390625 59.28125 14.984375 53.46875 
Q 12.59375 47.65625 12.5 36.921875 
Q 15.671875 41.75 20.265625 44.09375 
Q 24.859375 46.4375 29.890625 46.4375 
Q 38.671875 46.4375 44.84375 39.96875 
Q 51.03125 33.5 51.03125 23.25 
Q 51.03125 16.5 48.125 10.71875 
Q 45.21875 4.9375 40.140625 1.859375 
Q 35.0625 -1.21875 28.609375 -1.21875 
Q 17.625 -1.21875 10.6875 6.859375 
Q 3.765625 14.9375 3.765625 33.5 
Q 3.765625 54.25 11.421875 63.671875 
Q 18.109375 71.875 29.4375 71.875 
Q 37.890625 71.875 43.28125 67.140625 
Q 48.6875 62.40625 49.75 54.046875 
z
M 13.875 23.1875 
Q 13.875 18.65625 15.796875 14.5 
Q 17.71875 10.359375 21.1875 8.171875 
Q 24.65625 6 28.46875 6 
Q 34.03125 6 38.03125 10.484375 
Q 42.046875 14.984375 42.046875 22.703125 
Q 42.046875 30.125 38.078125 34.390625 
Q 34.125 38.671875 28.125 38.671875 
Q 22.171875 38.671875 18.015625 34.390625 
Q 13.875 30.125 13.875 23.1875 
z
" id="ArialMT-54"/>
      <path d="M 5.8125 54.390625 
Q 5.8125 62.0625 9.671875 67.421875 
Q 13.53125 72.796875 20.84375 72.796875 
Q 27.59375 72.796875 32 67.984375 
Q 36.421875 63.1875 36.421875 53.859375 
Q 36.421875 44.78125 31.953125 39.875 
Q 27.484375 34.96875 20.953125 34.96875 
Q 14.453125 34.96875 10.125 39.796875 
Q 5.8125 44.625 5.8125 54.390625 
z
M 21.09375 66.75 
Q 17.828125 66.75 15.65625 63.90625 
Q 13.484375 61.078125 13.484375 53.515625 
Q 13.484375 46.625 15.671875 43.8125 
Q 17.875 41.015625 21.09375 41.015625 
Q 24.421875 41.015625 26.59375 43.84375 
Q 28.765625 46.6875 28.765625 54.203125 
Q 28.765625 61.140625 26.5625 63.9375 
Q 24.359375 66.75 21.09375 66.75 
z
M 21.140625 -2.640625 
L 60.296875 72.796875 
L 67.4375 72.796875 
L 28.421875 -2.640625 
z
M 52.09375 16.796875 
Q 52.09375 24.515625 55.953125 29.859375 
Q 59.8125 35.203125 67.1875 35.203125 
Q 73.921875 35.203125 78.34375 30.390625 
Q 82.765625 25.59375 82.765625 16.265625 
Q 82.765625 7.171875 78.296875 2.265625 
Q 73.828125 -2.640625 67.234375 -2.640625 
Q 60.75 -2.640625 56.421875 2.21875 
Q 52.09375 7.078125 52.09375 16.796875 
z
M 67.4375 29.15625 
Q 64.109375 29.15625 61.9375 26.3125 
Q 59.765625 23.484375 59.765625 15.921875 
Q 59.765625 9.078125 61.953125 6.25 
Q 64.15625 3.421875 67.390625 3.421875 
Q 70.75 3.421875 72.921875 6.25 
Q 75.09375 9.078125 75.09375 16.609375 
Q 75.09375 23.53125 72.890625 26.34375 
Q 70.703125 29.15625 67.4375 29.15625 
z
" id="ArialMT-37"/>
     </defs>
     <use xlink:href="#ArialMT-55"/>
     <use x="55.615234" xlink:href="#ArialMT-53"/>
     <use x="111.230469" xlink:href="#ArialMT-46"/>
     <use x="139.013672" xlink:href="#ArialMT-54"/>
     <use x="194.628906" xlink:href="#ArialMT-37"/>
    </g>
   </g>
   <g id="text_3">
    <!-- Fatal -->
    <g style="fill:#262626;" transform="translate(370.815047 382.807278)scale(0.165 -0.165)">
     <use xlink:href="#ArialMT-70"/>
     <use x="61.083984" xlink:href="#ArialMT-97"/>
     <use x="116.699219" xlink:href="#ArialMT-116"/>
     <use x="144.482422" xlink:href="#ArialMT-97"/>
     <use x="200.097656" xlink:href="#ArialMT-108"/>
    </g>
   </g>
   <g id="text_4">
    <!-- 24.4% -->
    <g style="fill:#262626;" transform="translate(303.880597 343.342005)scale(0.18 -0.18)">
     <defs>
      <path d="M 50.34375 8.453125 
L 50.34375 0 
L 3.03125 0 
Q 2.9375 3.171875 4.046875 6.109375 
Q 5.859375 10.9375 9.828125 15.625 
Q 13.8125 20.3125 21.34375 26.46875 
Q 33.015625 36.03125 37.109375 41.625 
Q 41.21875 47.21875 41.21875 52.203125 
Q 41.21875 57.421875 37.46875 61 
Q 33.734375 64.59375 27.734375 64.59375 
Q 21.390625 64.59375 17.578125 60.78125 
Q 13.765625 56.984375 13.71875 50.25 
L 4.6875 51.171875 
Q 5.609375 61.28125 11.65625 66.578125 
Q 17.71875 71.875 27.9375 71.875 
Q 38.234375 71.875 44.234375 66.15625 
Q 50.25 60.453125 50.25 52 
Q 50.25 47.703125 48.484375 43.546875 
Q 46.734375 39.40625 42.65625 34.8125 
Q 38.578125 30.21875 29.109375 22.21875 
Q 21.1875 15.578125 18.9375 13.203125 
Q 16.703125 10.84375 15.234375 8.453125 
z
" id="ArialMT-50"/>
      <path d="M 32.328125 0 
L 32.328125 17.140625 
L 1.265625 17.140625 
L 1.265625 25.203125 
L 33.9375 71.578125 
L 41.109375 71.578125 
L 41.109375 25.203125 
L 50.78125 25.203125 
L 50.78125 17.140625 
L 41.109375 17.140625 
L 41.109375 0 
z
M 32.328125 25.203125 
L 32.328125 57.46875 
L 9.90625 25.203125 
z
" id="ArialMT-52"/>
     </defs>
     <use xlink:href="#ArialMT-50"/>
     <use x="55.615234" xlink:href="#ArialMT-52"/>
     <use x="111.230469" xlink:href="#ArialMT-46"/>
     <use x="139.013672" xlink:href="#ArialMT-52"/>
     <use x="194.628906" xlink:href="#ArialMT-37"/>
    </g>
   </g>
   <g id="text_5">
    <!-- Fatality Rate -->
    <g style="fill:#262626;" transform="translate(224.777399 63.12)scale(0.18 -0.18)">
     <defs>
      <path d="M 6.640625 61.46875 
L 6.640625 71.578125 
L 15.4375 71.578125 
L 15.4375 61.46875 
z
M 6.640625 0 
L 6.640625 51.859375 
L 15.4375 51.859375 
L 15.4375 0 
z
" id="ArialMT-105"/>
      <path d="M 6.203125 -19.96875 
L 5.21875 -11.71875 
Q 8.109375 -12.5 10.25 -12.5 
Q 13.1875 -12.5 14.9375 -11.515625 
Q 16.703125 -10.546875 17.828125 -8.796875 
Q 18.65625 -7.46875 20.515625 -2.25 
Q 20.75 -1.515625 21.296875 -0.09375 
L 1.609375 51.859375 
L 11.078125 51.859375 
L 21.875 21.828125 
Q 23.96875 16.109375 25.640625 9.8125 
Q 27.15625 15.875 29.25 21.625 
L 40.328125 51.859375 
L 49.125 51.859375 
L 29.390625 -0.875 
Q 26.21875 -9.421875 24.46875 -12.640625 
Q 22.125 -17 19.09375 -19.015625 
Q 16.0625 -21.046875 11.859375 -21.046875 
Q 9.328125 -21.046875 6.203125 -19.96875 
z
" id="ArialMT-121"/>
      <path d="M 7.859375 0 
L 7.859375 71.578125 
L 39.59375 71.578125 
Q 49.171875 71.578125 54.140625 69.640625 
Q 59.125 67.71875 62.109375 62.828125 
Q 65.09375 57.953125 65.09375 52.046875 
Q 65.09375 44.4375 60.15625 39.203125 
Q 55.21875 33.984375 44.921875 32.5625 
Q 48.6875 30.765625 50.640625 29 
Q 54.78125 25.203125 58.5 19.484375 
L 70.953125 0 
L 59.03125 0 
L 49.5625 14.890625 
Q 45.40625 21.34375 42.71875 24.75 
Q 40.046875 28.171875 37.921875 29.53125 
Q 35.796875 30.90625 33.59375 31.453125 
Q 31.984375 31.78125 28.328125 31.78125 
L 17.328125 31.78125 
L 17.328125 0 
z
M 17.328125 39.984375 
L 37.703125 39.984375 
Q 44.1875 39.984375 47.84375 41.328125 
Q 51.515625 42.671875 53.421875 45.625 
Q 55.328125 48.578125 55.328125 52.046875 
Q 55.328125 57.125 51.640625 60.390625 
Q 47.953125 63.671875 39.984375 63.671875 
L 17.328125 63.671875 
z
" id="ArialMT-82"/>
      <path d="M 42.09375 16.703125 
L 51.171875 15.578125 
Q 49.03125 7.625 43.21875 3.21875 
Q 37.40625 -1.171875 28.375 -1.171875 
Q 17 -1.171875 10.328125 5.828125 
Q 3.65625 12.84375 3.65625 25.484375 
Q 3.65625 38.578125 10.390625 45.796875 
Q 17.140625 53.03125 27.875 53.03125 
Q 38.28125 53.03125 44.875 45.953125 
Q 51.46875 38.875 51.46875 26.03125 
Q 51.46875 25.25 51.421875 23.6875 
L 12.75 23.6875 
Q 13.234375 15.140625 17.578125 10.59375 
Q 21.921875 6.0625 28.421875 6.0625 
Q 33.25 6.0625 36.671875 8.59375 
Q 40.09375 11.140625 42.09375 16.703125 
z
M 13.234375 30.90625 
L 42.1875 30.90625 
Q 41.609375 37.453125 38.875 40.71875 
Q 34.671875 45.796875 27.984375 45.796875 
Q 21.921875 45.796875 17.796875 41.75 
Q 13.671875 37.703125 13.234375 30.90625 
z
" id="ArialMT-101"/>
     </defs>
     <use xlink:href="#ArialMT-70"/>
     <use x="61.083984" xlink:href="#ArialMT-97"/>
     <use x="116.699219" xlink:href="#ArialMT-116"/>
     <use x="144.482422" xlink:href="#ArialMT-97"/>
     <use x="200.097656" xlink:href="#ArialMT-108"/>
     <use x="222.314453" xlink:href="#ArialMT-105"/>
     <use x="244.53125" xlink:href="#ArialMT-116"/>
     <use x="272.314453" xlink:href="#ArialMT-121"/>
     <use x="322.314453" xlink:href="#ArialMT-32"/>
     <use x="350.097656" xlink:href="#ArialMT-82"/>
     <use x="422.314453" xlink:href="#ArialMT-97"/>
     <use x="477.929688" xlink:href="#ArialMT-116"/>
     <use x="505.712891" xlink:href="#ArialMT-101"/>
    </g>
   </g>
  </g>
  <g id="axes_2">
   <g id="matplotlib.axis_3"/>
   <g id="matplotlib.axis_4"/>
   <g id="patch_6">
    <path d="M 691.81542 288.787955 
C 691.81542 275.784319 689.540561 262.880366 685.093894 250.66064 
C 680.647227 238.440914 674.096925 227.092762 665.739716 217.130252 
C 657.382507 207.167742 647.346518 198.743614 636.086377 192.239479 
C 624.826236 185.735343 612.514578 181.250918 599.709116 178.989346 
C 586.903655 176.727774 573.800717 176.723729 560.993861 178.977394 
C 548.187006 181.231059 535.872581 185.707882 524.608427 192.205064 
C 513.344272 198.702246 503.303084 207.120176 494.939726 217.077524 
C 486.576367 227.034872 480.01906 238.378978 475.564849 250.595956 
C 471.110638 262.812934 468.827812 275.715481 468.819783 288.719114 
C 468.811755 301.722748 471.078646 314.628104 475.517767 326.850573 
C 479.956889 339.073042 486.500183 350.425236 494.851239 360.392904 
C 503.202296 370.360571 513.233082 378.790894 524.489205 385.301981 
C 535.745327 391.813068 548.054215 396.305093 560.858277 398.574571 
C 573.66234 400.844049 586.765273 400.856184 599.573518 398.610427 
C 612.381762 396.364669 624.698949 391.89545 635.967112 385.405224 
C 647.235276 378.914998 657.28166 370.503269 665.651165 360.551087 
L 580.317591 288.787955 
L 691.81542 288.787955 
z
" style="fill:#093141;opacity:0.5;stroke:#093141;stroke-linejoin:miter;"/>
   </g>
   <g id="patch_7">
    <path d="M 681.364076 366.279887 
C 689.748463 356.310008 696.321115 344.947454 700.783246 332.708752 
C 705.245377 320.470051 707.528332 307.543508 707.528332 294.51675 
L 596.030503 294.516755 
L 681.364076 366.279887 
z
" style="fill:#23373b;opacity:0.5;stroke:#23373b;stroke-linejoin:miter;"/>
   </g>
   <g id="patch_8">
    <path d="M 694.045377 286.557999 
C 694.045377 273.554363 691.770518 260.650409 687.323851 248.430683 
C 682.877184 236.210957 676.326882 224.862805 667.969673 214.900296 
C 659.612463 204.937786 649.576474 196.513658 638.316334 190.009522 
C 627.056193 183.505387 614.744534 179.020961 601.939073 176.75939 
C 589.133612 174.497818 576.030673 174.493773 563.223818 176.747438 
C 550.416963 179.001103 538.102538 183.477926 526.838383 189.975108 
C 515.574229 196.47229 505.533041 204.89022 497.169682 214.847568 
C 488.806323 224.804916 482.249016 236.149021 477.794805 248.365999 
C 473.340594 260.582977 471.057769 273.485524 471.04974 286.489158 
C 471.041711 299.492791 473.308602 312.398147 477.747724 324.620616 
C 482.186846 336.843085 488.730139 348.195279 497.081196 358.162947 
C 505.432253 368.130615 515.463038 376.560938 526.719161 383.072024 
C 537.975284 389.583111 550.284171 394.075137 563.088234 396.344615 
C 575.892297 398.614092 588.99523 398.626227 601.803474 396.38047 
C 614.611719 394.134713 626.928905 389.665494 638.197069 383.175268 
C 649.465233 376.685042 659.511616 368.273313 667.881121 358.32113 
L 582.547548 286.557999 
L 694.045377 286.557999 
z
" style="fill:#1da2d8;stroke:#808080;stroke-linejoin:miter;"/>
   </g>
   <g id="patch_9">
    <path d="M 683.594033 364.04993 
C 691.97842 354.080051 698.551072 342.717497 703.013202 330.478795 
C 707.475333 318.240094 709.758289 305.313551 709.758288 292.286793 
L 598.260459 292.286798 
L 683.594033 364.04993 
z
" style="fill:#76b6c4;stroke:#808080;stroke-linejoin:miter;"/>
   </g>
   <g id="text_6">
    <!-- Male -->
    <g style="fill:#262626;" transform="translate(431.558359 248.812307)scale(0.165 -0.165)">
     <defs>
      <path d="M 7.421875 0 
L 7.421875 71.578125 
L 21.6875 71.578125 
L 38.625 20.90625 
Q 40.96875 13.8125 42.046875 10.296875 
Q 43.265625 14.203125 45.84375 21.78125 
L 62.984375 71.578125 
L 75.734375 71.578125 
L 75.734375 0 
L 66.609375 0 
L 66.609375 59.90625 
L 45.796875 0 
L 37.25 0 
L 16.546875 60.9375 
L 16.546875 0 
z
" id="ArialMT-77"/>
     </defs>
     <use xlink:href="#ArialMT-77"/>
     <use x="83.300781" xlink:href="#ArialMT-97"/>
     <use x="138.916016" xlink:href="#ArialMT-108"/>
     <use x="161.132812" xlink:href="#ArialMT-101"/>
    </g>
   </g>
   <g id="text_7">
    <!-- 88.9% -->
    <g style="fill:#262626;" transform="translate(494.17809 268.29608)scale(0.18 -0.18)">
     <defs>
      <path d="M 17.671875 38.8125 
Q 12.203125 40.828125 9.5625 44.53125 
Q 6.9375 48.25 6.9375 53.421875 
Q 6.9375 61.234375 12.546875 66.546875 
Q 18.171875 71.875 27.484375 71.875 
Q 36.859375 71.875 42.578125 66.421875 
Q 48.296875 60.984375 48.296875 53.171875 
Q 48.296875 48.1875 45.671875 44.5 
Q 43.0625 40.828125 37.75 38.8125 
Q 44.34375 36.671875 47.78125 31.875 
Q 51.21875 27.09375 51.21875 20.453125 
Q 51.21875 11.28125 44.71875 5.03125 
Q 38.234375 -1.21875 27.640625 -1.21875 
Q 17.046875 -1.21875 10.546875 5.046875 
Q 4.046875 11.328125 4.046875 20.703125 
Q 4.046875 27.6875 7.59375 32.390625 
Q 11.140625 37.109375 17.671875 38.8125 
z
M 15.921875 53.71875 
Q 15.921875 48.640625 19.1875 45.40625 
Q 22.46875 42.1875 27.6875 42.1875 
Q 32.765625 42.1875 36.015625 45.375 
Q 39.265625 48.578125 39.265625 53.21875 
Q 39.265625 58.0625 35.90625 61.359375 
Q 32.5625 64.65625 27.59375 64.65625 
Q 22.5625 64.65625 19.234375 61.421875 
Q 15.921875 58.203125 15.921875 53.71875 
z
M 13.09375 20.65625 
Q 13.09375 16.890625 14.875 13.375 
Q 16.65625 9.859375 20.171875 7.921875 
Q 23.6875 6 27.734375 6 
Q 34.03125 6 38.125 10.046875 
Q 42.234375 14.109375 42.234375 20.359375 
Q 42.234375 26.703125 38.015625 30.859375 
Q 33.796875 35.015625 27.4375 35.015625 
Q 21.234375 35.015625 17.15625 30.90625 
Q 13.09375 26.8125 13.09375 20.65625 
z
" id="ArialMT-56"/>
      <path d="M 5.46875 16.546875 
L 13.921875 17.328125 
Q 14.984375 11.375 18.015625 8.6875 
Q 21.046875 6 25.78125 6 
Q 29.828125 6 32.875 7.859375 
Q 35.9375 9.71875 37.890625 12.8125 
Q 39.84375 15.921875 41.15625 21.1875 
Q 42.484375 26.46875 42.484375 31.9375 
Q 42.484375 32.515625 42.4375 33.6875 
Q 39.796875 29.5 35.234375 26.875 
Q 30.671875 24.265625 25.34375 24.265625 
Q 16.453125 24.265625 10.296875 30.703125 
Q 4.15625 37.15625 4.15625 47.703125 
Q 4.15625 58.59375 10.578125 65.234375 
Q 17 71.875 26.65625 71.875 
Q 33.640625 71.875 39.421875 68.109375 
Q 45.21875 64.359375 48.21875 57.390625 
Q 51.21875 50.4375 51.21875 37.25 
Q 51.21875 23.53125 48.234375 15.40625 
Q 45.265625 7.28125 39.375 3.03125 
Q 33.5 -1.21875 25.59375 -1.21875 
Q 17.1875 -1.21875 11.859375 3.4375 
Q 6.546875 8.109375 5.46875 16.546875 
z
M 41.453125 48.140625 
Q 41.453125 55.71875 37.421875 60.15625 
Q 33.40625 64.59375 27.734375 64.59375 
Q 21.875 64.59375 17.53125 59.8125 
Q 13.1875 55.03125 13.1875 47.40625 
Q 13.1875 40.578125 17.3125 36.296875 
Q 21.4375 32.03125 27.484375 32.03125 
Q 33.59375 32.03125 37.515625 36.296875 
Q 41.453125 40.578125 41.453125 48.140625 
z
" id="ArialMT-57"/>
     </defs>
     <use xlink:href="#ArialMT-56"/>
     <use x="55.615234" xlink:href="#ArialMT-56"/>
     <use x="111.230469" xlink:href="#ArialMT-46"/>
     <use x="139.013672" xlink:href="#ArialMT-57"/>
     <use x="194.628906" xlink:href="#ArialMT-37"/>
    </g>
   </g>
   <g id="text_8">
    <!-- Female -->
    <g style="fill:#262626;" transform="translate(713.488477 338.563503)scale(0.165 -0.165)">
     <defs>
      <path d="M 6.59375 0 
L 6.59375 51.859375 
L 14.453125 51.859375 
L 14.453125 44.578125 
Q 16.890625 48.390625 20.9375 50.703125 
Q 25 53.03125 30.171875 53.03125 
Q 35.9375 53.03125 39.625 50.640625 
Q 43.3125 48.25 44.828125 43.953125 
Q 50.984375 53.03125 60.84375 53.03125 
Q 68.5625 53.03125 72.703125 48.75 
Q 76.859375 44.484375 76.859375 35.59375 
L 76.859375 0 
L 68.109375 0 
L 68.109375 32.671875 
Q 68.109375 37.9375 67.25 40.25 
Q 66.40625 42.578125 64.15625 43.984375 
Q 61.921875 45.40625 58.890625 45.40625 
Q 53.421875 45.40625 49.796875 41.765625 
Q 46.1875 38.140625 46.1875 30.125 
L 46.1875 0 
L 37.40625 0 
L 37.40625 33.6875 
Q 37.40625 39.546875 35.25 42.46875 
Q 33.109375 45.40625 28.21875 45.40625 
Q 24.515625 45.40625 21.359375 43.453125 
Q 18.21875 41.5 16.796875 37.734375 
Q 15.375 33.984375 15.375 26.90625 
L 15.375 0 
z
" id="ArialMT-109"/>
     </defs>
     <use xlink:href="#ArialMT-70"/>
     <use x="61.083984" xlink:href="#ArialMT-101"/>
     <use x="116.699219" xlink:href="#ArialMT-109"/>
     <use x="200" xlink:href="#ArialMT-97"/>
     <use x="255.615234" xlink:href="#ArialMT-108"/>
     <use x="277.832031" xlink:href="#ArialMT-101"/>
    </g>
   </g>
   <g id="text_9">
    <!-- 11.1% -->
    <g style="fill:#262626;" transform="translate(636.258043 319.855278)scale(0.18 -0.18)">
     <defs>
      <path d="M 37.25 0 
L 28.46875 0 
L 28.46875 56 
Q 25.296875 52.984375 20.140625 49.953125 
Q 14.984375 46.921875 10.890625 45.40625 
L 10.890625 53.90625 
Q 18.265625 57.375 23.78125 62.296875 
Q 29.296875 67.234375 31.59375 71.875 
L 37.25 71.875 
z
" id="ArialMT-49"/>
     </defs>
     <use xlink:href="#ArialMT-49"/>
     <use x="48.240234" xlink:href="#ArialMT-49"/>
     <use x="103.855469" xlink:href="#ArialMT-46"/>
     <use x="131.638672" xlink:href="#ArialMT-49"/>
     <use x="187.253906" xlink:href="#ArialMT-37"/>
    </g>
   </g>
   <g id="text_10">
    <!-- Male vs Female -->
    <g style="fill:#262626;" transform="translate(526.885313 63.12)scale(0.18 -0.18)">
     <defs>
      <path d="M 21 0 
L 1.265625 51.859375 
L 10.546875 51.859375 
L 21.6875 20.796875 
Q 23.484375 15.765625 25 10.359375 
Q 26.171875 14.453125 28.265625 20.21875 
L 39.796875 51.859375 
L 48.828125 51.859375 
L 29.203125 0 
z
" id="ArialMT-118"/>
      <path d="M 3.078125 15.484375 
L 11.765625 16.84375 
Q 12.5 11.625 15.84375 8.84375 
Q 19.1875 6.0625 25.203125 6.0625 
Q 31.25 6.0625 34.171875 8.515625 
Q 37.109375 10.984375 37.109375 14.3125 
Q 37.109375 17.28125 34.515625 19 
Q 32.71875 20.171875 25.53125 21.96875 
Q 15.875 24.421875 12.140625 26.203125 
Q 8.40625 27.984375 6.46875 31.125 
Q 4.546875 34.28125 4.546875 38.09375 
Q 4.546875 41.546875 6.125 44.5 
Q 7.71875 47.46875 10.453125 49.421875 
Q 12.5 50.921875 16.03125 51.96875 
Q 19.578125 53.03125 23.640625 53.03125 
Q 29.734375 53.03125 34.34375 51.265625 
Q 38.96875 49.515625 41.15625 46.5 
Q 43.359375 43.5 44.1875 38.484375 
L 35.59375 37.3125 
Q 35.015625 41.3125 32.203125 43.546875 
Q 29.390625 45.796875 24.265625 45.796875 
Q 18.21875 45.796875 15.625 43.796875 
Q 13.03125 41.796875 13.03125 39.109375 
Q 13.03125 37.40625 14.109375 36.03125 
Q 15.1875 34.625 17.484375 33.6875 
Q 18.796875 33.203125 25.25 31.453125 
Q 34.578125 28.953125 38.25 27.359375 
Q 41.9375 25.78125 44.03125 22.75 
Q 46.140625 19.734375 46.140625 15.234375 
Q 46.140625 10.84375 43.578125 6.953125 
Q 41.015625 3.078125 36.171875 0.953125 
Q 31.34375 -1.171875 25.25 -1.171875 
Q 15.140625 -1.171875 9.84375 3.03125 
Q 4.546875 7.234375 3.078125 15.484375 
z
" id="ArialMT-115"/>
     </defs>
     <use xlink:href="#ArialMT-77"/>
     <use x="83.300781" xlink:href="#ArialMT-97"/>
     <use x="138.916016" xlink:href="#ArialMT-108"/>
     <use x="161.132812" xlink:href="#ArialMT-101"/>
     <use x="216.748047" xlink:href="#ArialMT-32"/>
     <use x="244.53125" xlink:href="#ArialMT-118"/>
     <use x="294.53125" xlink:href="#ArialMT-115"/>
     <use x="344.53125" xlink:href="#ArialMT-32"/>
     <use x="372.314453" xlink:href="#ArialMT-70"/>
     <use x="433.398438" xlink:href="#ArialMT-101"/>
     <use x="489.013672" xlink:href="#ArialMT-109"/>
     <use x="572.314453" xlink:href="#ArialMT-97"/>
     <use x="627.929688" xlink:href="#ArialMT-108"/>
     <use x="650.146484" xlink:href="#ArialMT-101"/>
    </g>
   </g>
  </g>
  <g id="axes_3">
   <g id="matplotlib.axis_5"/>
   <g id="matplotlib.axis_6"/>
   <g id="patch_10">
    <path d="M 1013.303801 288.214996 
C 1013.303801 276.187971 1011.412297 264.235432 1007.698716 252.796087 
C 1003.985134 241.356742 998.495472 230.572281 991.431224 220.83854 
C 984.366976 211.1048 975.815641 202.542344 966.091089 195.465451 
C 956.366538 188.388559 945.589221 182.884886 934.154711 179.15644 
C 922.720202 175.427995 910.770131 173.520959 898.743117 173.505328 
C 886.716103 173.489697 874.761116 175.365666 863.316954 179.064377 
C 851.872792 182.763089 841.081206 188.23873 831.338293 195.290322 
C 821.595379 202.341914 813.021817 210.882114 805.932292 220.59746 
C 798.842767 230.312806 793.325092 241.082961 789.581789 252.512615 
C 785.838486 263.942269 783.915921 275.889851 783.88466 287.916835 
C 783.853398 299.943818 785.713828 311.901234 789.397663 323.350193 
C 793.081498 334.799152 798.54311 345.597845 805.582034 355.349915 
C 812.620958 365.101985 821.150008 373.686639 830.856132 380.788784 
C 840.562256 387.890929 851.325231 393.422597 862.75001 397.180751 
C 874.17479 400.938905 886.119863 402.876996 898.146796 402.923888 
C 910.173729 402.97078 922.133552 401.125892 933.587289 397.45694 
L 898.594037 288.214996 
L 1013.303801 288.214996 
z
" style="fill:#093141;opacity:0.5;stroke:#093141;stroke-linejoin:miter;"/>
   </g>
   <g id="patch_11">
    <path d="M 942.853464 404.218693 
C 954.29467 400.553755 965.089417 395.114061 974.842347 388.098839 
C 984.595277 381.083617 993.185854 372.57957 1000.299448 362.898157 
L 907.860211 294.976749 
L 942.853464 404.218693 
z
" style="fill:#23373b;opacity:0.5;stroke:#23373b;stroke-linejoin:miter;"/>
   </g>
   <g id="patch_12">
    <path d="M 1000.299448 362.898157 
C 1004.514855 357.1611 1008.187035 351.044048 1011.268431 344.626223 
C 1014.349826 338.208397 1016.827078 331.517624 1018.668103 324.640553 
L 907.860211 294.976749 
L 1000.299448 362.898157 
z
" style="fill:#263e4c;opacity:0.5;stroke:#263e4c;stroke-linejoin:miter;"/>
   </g>
   <g id="patch_13">
    <path d="M 1018.668103 324.640553 
C 1019.961764 319.808137 1020.937922 314.896265 1021.590324 309.936409 
C 1022.242727 304.976553 1022.569976 299.979326 1022.569976 294.976747 
L 907.860211 294.976749 
L 1018.668103 324.640553 
z
" style="fill:#43494a;opacity:0.5;stroke:#43494a;stroke-linejoin:miter;"/>
   </g>
   <g id="patch_14">
    <path d="M 1015.597997 285.9208 
C 1015.597997 273.893776 1013.706493 261.941237 1009.992911 250.501892 
C 1006.279329 239.062546 1000.789668 228.278086 993.725419 218.544345 
C 986.661171 208.810604 978.109836 200.248149 968.385285 193.171256 
C 958.660733 186.094363 947.883416 180.59069 936.448907 176.862245 
C 925.014397 173.1338 913.064327 171.226763 901.037313 171.211133 
C 889.010299 171.195502 877.055311 173.07147 865.611149 176.770182 
C 854.166987 180.468893 843.375401 185.944535 833.632488 192.996127 
C 823.889575 200.047719 815.316012 208.587918 808.226487 218.303264 
C 801.136962 228.01861 795.619288 238.788765 791.875985 250.21842 
C 788.132682 261.648074 786.210116 273.595656 786.178855 285.622639 
C 786.147594 297.649623 788.008023 309.607038 791.691858 321.055998 
C 795.375694 332.504957 800.837305 343.30365 807.876229 353.05572 
C 814.915153 362.807789 823.444203 371.392443 833.150327 378.494589 
C 842.856451 385.596734 853.619426 391.128402 865.044206 394.886556 
C 876.468985 398.64471 888.414059 400.582801 900.440991 400.629693 
C 912.467924 400.676585 924.427747 398.831697 935.881484 395.162744 
L 900.888232 285.9208 
L 1015.597997 285.9208 
z
" style="fill:#1da2d8;stroke:#808080;stroke-linejoin:miter;"/>
   </g>
   <g id="patch_15">
    <path d="M 945.147659 401.924498 
C 956.588866 398.259559 967.383612 392.819865 977.136542 385.804644 
C 986.889473 378.789422 995.480049 370.285375 1002.593643 360.603961 
L 910.154406 292.682554 
L 945.147659 401.924498 
z
" style="fill:#76b6c4;stroke:#808080;stroke-linejoin:miter;"/>
   </g>
   <g id="patch_16">
    <path d="M 1002.593643 360.603961 
C 1006.80905 354.866904 1010.48123 348.749853 1013.562626 342.332027 
C 1016.644022 335.914202 1019.121273 329.223429 1020.962298 322.346357 
L 910.154406 292.682554 
L 1002.593643 360.603961 
z
" style="fill:#7fcdff;stroke:#808080;stroke-linejoin:miter;"/>
   </g>
   <g id="patch_17">
    <path d="M 1020.962298 322.346357 
C 1022.255959 317.513941 1023.232118 312.60207 1023.88452 307.642214 
C 1024.536922 302.682357 1024.864171 297.685131 1024.864171 292.682551 
L 910.154406 292.682554 
L 1020.962298 322.346357 
z
" style="fill:#def3f6;stroke:#808080;stroke-linejoin:miter;"/>
   </g>
   <g id="text_11">
    <!-- Unprovoked -->
    <g style="fill:#262626;" transform="translate(709.996954 215.807019)scale(0.165 -0.165)">
     <defs>
      <path d="M 54.6875 71.578125 
L 64.15625 71.578125 
L 64.15625 30.21875 
Q 64.15625 19.4375 61.71875 13.078125 
Q 59.28125 6.734375 52.90625 2.75 
Q 46.53125 -1.21875 36.1875 -1.21875 
Q 26.125 -1.21875 19.71875 2.25 
Q 13.328125 5.71875 10.59375 12.28125 
Q 7.859375 18.84375 7.859375 30.21875 
L 7.859375 71.578125 
L 17.328125 71.578125 
L 17.328125 30.28125 
Q 17.328125 20.953125 19.0625 16.53125 
Q 20.796875 12.109375 25.015625 9.71875 
Q 29.25 7.328125 35.359375 7.328125 
Q 45.796875 7.328125 50.234375 12.0625 
Q 54.6875 16.796875 54.6875 30.28125 
z
" id="ArialMT-85"/>
      <path d="M 6.59375 -19.875 
L 6.59375 51.859375 
L 14.59375 51.859375 
L 14.59375 45.125 
Q 17.4375 49.078125 21 51.046875 
Q 24.5625 53.03125 29.640625 53.03125 
Q 36.28125 53.03125 41.359375 49.609375 
Q 46.4375 46.1875 49.015625 39.953125 
Q 51.609375 33.734375 51.609375 26.3125 
Q 51.609375 18.359375 48.75 11.984375 
Q 45.90625 5.609375 40.453125 2.21875 
Q 35.015625 -1.171875 29 -1.171875 
Q 24.609375 -1.171875 21.109375 0.6875 
Q 17.625 2.546875 15.375 5.375 
L 15.375 -19.875 
z
M 14.546875 25.640625 
Q 14.546875 15.625 18.59375 10.84375 
Q 22.65625 6.0625 28.421875 6.0625 
Q 34.28125 6.0625 38.453125 11.015625 
Q 42.625 15.96875 42.625 26.375 
Q 42.625 36.28125 38.546875 41.203125 
Q 34.46875 46.140625 28.8125 46.140625 
Q 23.1875 46.140625 18.859375 40.890625 
Q 14.546875 35.640625 14.546875 25.640625 
z
" id="ArialMT-112"/>
      <path d="M 6.5 0 
L 6.5 51.859375 
L 14.40625 51.859375 
L 14.40625 44 
Q 17.4375 49.515625 20 51.265625 
Q 22.5625 53.03125 25.640625 53.03125 
Q 30.078125 53.03125 34.671875 50.203125 
L 31.640625 42.046875 
Q 28.421875 43.953125 25.203125 43.953125 
Q 22.3125 43.953125 20.015625 42.21875 
Q 17.71875 40.484375 16.75 37.40625 
Q 15.28125 32.71875 15.28125 27.15625 
L 15.28125 0 
z
" id="ArialMT-114"/>
      <path d="M 6.640625 0 
L 6.640625 71.578125 
L 15.4375 71.578125 
L 15.4375 30.765625 
L 36.234375 51.859375 
L 47.609375 51.859375 
L 27.78125 32.625 
L 49.609375 0 
L 38.765625 0 
L 21.625 26.515625 
L 15.4375 20.5625 
L 15.4375 0 
z
" id="ArialMT-107"/>
      <path d="M 40.234375 0 
L 40.234375 6.546875 
Q 35.296875 -1.171875 25.734375 -1.171875 
Q 19.53125 -1.171875 14.328125 2.25 
Q 9.125 5.671875 6.265625 11.796875 
Q 3.421875 17.921875 3.421875 25.875 
Q 3.421875 33.640625 6 39.96875 
Q 8.59375 46.296875 13.765625 49.65625 
Q 18.953125 53.03125 25.34375 53.03125 
Q 30.03125 53.03125 33.6875 51.046875 
Q 37.359375 49.078125 39.65625 45.90625 
L 39.65625 71.578125 
L 48.390625 71.578125 
L 48.390625 0 
z
M 12.453125 25.875 
Q 12.453125 15.921875 16.640625 10.984375 
Q 20.84375 6.0625 26.5625 6.0625 
Q 32.328125 6.0625 36.34375 10.765625 
Q 40.375 15.484375 40.375 25.140625 
Q 40.375 35.796875 36.265625 40.765625 
Q 32.171875 45.75 26.171875 45.75 
Q 20.3125 45.75 16.375 40.96875 
Q 12.453125 36.1875 12.453125 25.875 
z
" id="ArialMT-100"/>
     </defs>
     <use xlink:href="#ArialMT-85"/>
     <use x="72.216797" xlink:href="#ArialMT-110"/>
     <use x="127.832031" xlink:href="#ArialMT-112"/>
     <use x="183.447266" xlink:href="#ArialMT-114"/>
     <use x="216.748047" xlink:href="#ArialMT-111"/>
     <use x="272.363281" xlink:href="#ArialMT-118"/>
     <use x="322.363281" xlink:href="#ArialMT-111"/>
     <use x="377.978516" xlink:href="#ArialMT-107"/>
     <use x="427.978516" xlink:href="#ArialMT-101"/>
     <use x="483.59375" xlink:href="#ArialMT-100"/>
    </g>
   </g>
   <g id="text_12">
    <!-- 79.9% -->
    <g style="fill:#262626;" transform="translate(819.773373 250.00356)scale(0.18 -0.18)">
     <use xlink:href="#ArialMT-55"/>
     <use x="55.615234" xlink:href="#ArialMT-57"/>
     <use x="111.230469" xlink:href="#ArialMT-46"/>
     <use x="139.013672" xlink:href="#ArialMT-57"/>
     <use x="194.628906" xlink:href="#ArialMT-37"/>
    </g>
   </g>
   <g id="text_13">
    <!-- Provoked -->
    <g style="fill:#262626;" transform="translate(983.834756 399.38236)scale(0.165 -0.165)">
     <defs>
      <path d="M 7.71875 0 
L 7.71875 71.578125 
L 34.71875 71.578125 
Q 41.84375 71.578125 45.609375 70.90625 
Q 50.875 70.015625 54.4375 67.546875 
Q 58.015625 65.09375 60.1875 60.640625 
Q 62.359375 56.203125 62.359375 50.875 
Q 62.359375 41.75 56.546875 35.421875 
Q 50.734375 29.109375 35.546875 29.109375 
L 17.1875 29.109375 
L 17.1875 0 
z
M 17.1875 37.546875 
L 35.6875 37.546875 
Q 44.875 37.546875 48.734375 40.96875 
Q 52.59375 44.390625 52.59375 50.59375 
Q 52.59375 55.078125 50.3125 58.265625 
Q 48.046875 61.46875 44.34375 62.5 
Q 41.9375 63.140625 35.5 63.140625 
L 17.1875 63.140625 
z
" id="ArialMT-80"/>
     </defs>
     <use xlink:href="#ArialMT-80"/>
     <use x="66.699219" xlink:href="#ArialMT-114"/>
     <use x="100" xlink:href="#ArialMT-111"/>
     <use x="155.615234" xlink:href="#ArialMT-118"/>
     <use x="205.615234" xlink:href="#ArialMT-111"/>
     <use x="261.230469" xlink:href="#ArialMT-107"/>
     <use x="311.230469" xlink:href="#ArialMT-101"/>
     <use x="366.845703" xlink:href="#ArialMT-100"/>
    </g>
   </g>
   <g id="text_14">
    <!-- 10.0% -->
    <g style="fill:#262626;" transform="translate(924.825875 353.209089)scale(0.18 -0.18)">
     <defs>
      <path d="M 4.15625 35.296875 
Q 4.15625 48 6.765625 55.734375 
Q 9.375 63.484375 14.515625 67.671875 
Q 19.671875 71.875 27.484375 71.875 
Q 33.25 71.875 37.59375 69.546875 
Q 41.9375 67.234375 44.765625 62.859375 
Q 47.609375 58.5 49.21875 52.21875 
Q 50.828125 45.953125 50.828125 35.296875 
Q 50.828125 22.703125 48.234375 14.96875 
Q 45.65625 7.234375 40.5 3 
Q 35.359375 -1.21875 27.484375 -1.21875 
Q 17.140625 -1.21875 11.234375 6.203125 
Q 4.15625 15.140625 4.15625 35.296875 
z
M 13.1875 35.296875 
Q 13.1875 17.671875 17.3125 11.828125 
Q 21.4375 6 27.484375 6 
Q 33.546875 6 37.671875 11.859375 
Q 41.796875 17.71875 41.796875 35.296875 
Q 41.796875 52.984375 37.671875 58.78125 
Q 33.546875 64.59375 27.390625 64.59375 
Q 21.34375 64.59375 17.71875 59.46875 
Q 13.1875 52.9375 13.1875 35.296875 
z
" id="ArialMT-48"/>
     </defs>
     <use xlink:href="#ArialMT-49"/>
     <use x="55.615234" xlink:href="#ArialMT-48"/>
     <use x="111.230469" xlink:href="#ArialMT-46"/>
     <use x="139.013672" xlink:href="#ArialMT-48"/>
     <use x="194.628906" xlink:href="#ArialMT-37"/>
    </g>
   </g>
   <g id="text_15">
    <!-- Total Boating -->
    <g style="fill:#262626;" transform="translate(1023.903448 351.465803)scale(0.165 -0.165)">
     <defs>
      <path d="M 25.921875 0 
L 25.921875 63.140625 
L 2.34375 63.140625 
L 2.34375 71.578125 
L 59.078125 71.578125 
L 59.078125 63.140625 
L 35.40625 63.140625 
L 35.40625 0 
z
" id="ArialMT-84"/>
      <path d="M 7.328125 0 
L 7.328125 71.578125 
L 34.1875 71.578125 
Q 42.390625 71.578125 47.34375 69.40625 
Q 52.296875 67.234375 55.09375 62.71875 
Q 57.90625 58.203125 57.90625 53.265625 
Q 57.90625 48.6875 55.421875 44.625 
Q 52.9375 40.578125 47.90625 38.09375 
Q 54.390625 36.1875 57.875 31.59375 
Q 61.375 27 61.375 20.75 
Q 61.375 15.71875 59.25 11.390625 
Q 57.125 7.078125 54 4.734375 
Q 50.875 2.390625 46.15625 1.1875 
Q 41.453125 0 34.625 0 
z
M 16.796875 41.5 
L 32.28125 41.5 
Q 38.578125 41.5 41.3125 42.328125 
Q 44.921875 43.40625 46.75 45.890625 
Q 48.578125 48.390625 48.578125 52.15625 
Q 48.578125 55.71875 46.875 58.421875 
Q 45.171875 61.140625 41.984375 62.140625 
Q 38.8125 63.140625 31.109375 63.140625 
L 16.796875 63.140625 
z
M 16.796875 8.453125 
L 34.625 8.453125 
Q 39.203125 8.453125 41.0625 8.796875 
Q 44.34375 9.375 46.53125 10.734375 
Q 48.734375 12.109375 50.140625 14.71875 
Q 51.5625 17.328125 51.5625 20.75 
Q 51.5625 24.75 49.515625 27.703125 
Q 47.46875 30.671875 43.828125 31.859375 
Q 40.1875 33.0625 33.34375 33.0625 
L 16.796875 33.0625 
z
" id="ArialMT-66"/>
      <path d="M 4.984375 -4.296875 
L 13.53125 -5.5625 
Q 14.0625 -9.515625 16.5 -11.328125 
Q 19.78125 -13.765625 25.4375 -13.765625 
Q 31.546875 -13.765625 34.859375 -11.328125 
Q 38.1875 -8.890625 39.359375 -4.5 
Q 40.046875 -1.8125 39.984375 6.78125 
Q 34.234375 0 25.640625 0 
Q 14.9375 0 9.078125 7.71875 
Q 3.21875 15.4375 3.21875 26.21875 
Q 3.21875 33.640625 5.90625 39.90625 
Q 8.59375 46.1875 13.6875 49.609375 
Q 18.796875 53.03125 25.6875 53.03125 
Q 34.859375 53.03125 40.828125 45.609375 
L 40.828125 51.859375 
L 48.921875 51.859375 
L 48.921875 7.03125 
Q 48.921875 -5.078125 46.453125 -10.125 
Q 44 -15.1875 38.640625 -18.109375 
Q 33.296875 -21.046875 25.484375 -21.046875 
Q 16.21875 -21.046875 10.5 -16.875 
Q 4.78125 -12.703125 4.984375 -4.296875 
z
M 12.25 26.859375 
Q 12.25 16.65625 16.296875 11.96875 
Q 20.359375 7.28125 26.46875 7.28125 
Q 32.515625 7.28125 36.609375 11.9375 
Q 40.71875 16.609375 40.71875 26.5625 
Q 40.71875 36.078125 36.5 40.90625 
Q 32.28125 45.75 26.3125 45.75 
Q 20.453125 45.75 16.34375 40.984375 
Q 12.25 36.234375 12.25 26.859375 
z
" id="ArialMT-103"/>
     </defs>
     <use xlink:href="#ArialMT-84"/>
     <use x="49.958984" xlink:href="#ArialMT-111"/>
     <use x="105.574219" xlink:href="#ArialMT-116"/>
     <use x="133.357422" xlink:href="#ArialMT-97"/>
     <use x="188.972656" xlink:href="#ArialMT-108"/>
     <use x="211.189453" xlink:href="#ArialMT-32"/>
     <use x="238.972656" xlink:href="#ArialMT-66"/>
     <use x="305.671875" xlink:href="#ArialMT-111"/>
     <use x="361.287109" xlink:href="#ArialMT-97"/>
     <use x="416.902344" xlink:href="#ArialMT-116"/>
     <use x="444.685547" xlink:href="#ArialMT-105"/>
     <use x="466.902344" xlink:href="#ArialMT-110"/>
     <use x="522.517578" xlink:href="#ArialMT-103"/>
    </g>
   </g>
   <g id="text_16">
    <!-- 5.9% -->
    <g style="fill:#262626;" transform="translate(951.686369 327.125519)scale(0.18 -0.18)">
     <use xlink:href="#ArialMT-53"/>
     <use x="55.615234" xlink:href="#ArialMT-46"/>
     <use x="83.398438" xlink:href="#ArialMT-57"/>
     <use x="139.013672" xlink:href="#ArialMT-37"/>
    </g>
   </g>
   <g id="text_17">
    <!-- Sea Disaster -->
    <g style="fill:#262626;" transform="translate(1035.257531 313.403688)scale(0.165 -0.165)">
     <defs>
      <path d="M 4.5 23 
L 13.421875 23.78125 
Q 14.0625 18.40625 16.375 14.96875 
Q 18.703125 11.53125 23.578125 9.40625 
Q 28.46875 7.28125 34.578125 7.28125 
Q 39.984375 7.28125 44.140625 8.890625 
Q 48.296875 10.5 50.3125 13.296875 
Q 52.34375 16.109375 52.34375 19.4375 
Q 52.34375 22.796875 50.390625 25.3125 
Q 48.4375 27.828125 43.953125 29.546875 
Q 41.0625 30.671875 31.203125 33.03125 
Q 21.34375 35.40625 17.390625 37.5 
Q 12.25 40.1875 9.734375 44.15625 
Q 7.234375 48.140625 7.234375 53.078125 
Q 7.234375 58.5 10.296875 63.203125 
Q 13.375 67.921875 19.28125 70.359375 
Q 25.203125 72.796875 32.421875 72.796875 
Q 40.375 72.796875 46.453125 70.234375 
Q 52.546875 67.671875 55.8125 62.6875 
Q 59.078125 57.71875 59.328125 51.421875 
L 50.25 50.734375 
Q 49.515625 57.515625 45.28125 60.984375 
Q 41.0625 64.453125 32.8125 64.453125 
Q 24.21875 64.453125 20.28125 61.296875 
Q 16.359375 58.15625 16.359375 53.71875 
Q 16.359375 49.859375 19.140625 47.359375 
Q 21.875 44.875 33.421875 42.265625 
Q 44.96875 39.65625 49.265625 37.703125 
Q 55.515625 34.8125 58.484375 30.390625 
Q 61.46875 25.984375 61.46875 20.21875 
Q 61.46875 14.5 58.203125 9.4375 
Q 54.9375 4.390625 48.796875 1.578125 
Q 42.671875 -1.21875 35.015625 -1.21875 
Q 25.296875 -1.21875 18.71875 1.609375 
Q 12.15625 4.4375 8.421875 10.125 
Q 4.6875 15.828125 4.5 23 
z
" id="ArialMT-83"/>
      <path d="M 7.71875 0 
L 7.71875 71.578125 
L 32.375 71.578125 
Q 40.71875 71.578125 45.125 70.5625 
Q 51.265625 69.140625 55.609375 65.4375 
Q 61.28125 60.640625 64.078125 53.1875 
Q 66.890625 45.75 66.890625 36.1875 
Q 66.890625 28.03125 64.984375 21.734375 
Q 63.09375 15.4375 60.109375 11.296875 
Q 57.125 7.171875 53.578125 4.796875 
Q 50.046875 2.4375 45.046875 1.21875 
Q 40.046875 0 33.546875 0 
z
M 17.1875 8.453125 
L 32.46875 8.453125 
Q 39.546875 8.453125 43.578125 9.765625 
Q 47.609375 11.078125 50 13.484375 
Q 53.375 16.84375 55.25 22.53125 
Q 57.125 28.21875 57.125 36.328125 
Q 57.125 47.5625 53.4375 53.59375 
Q 49.75 59.625 44.484375 61.671875 
Q 40.671875 63.140625 32.234375 63.140625 
L 17.1875 63.140625 
z
" id="ArialMT-68"/>
     </defs>
     <use xlink:href="#ArialMT-83"/>
     <use x="66.699219" xlink:href="#ArialMT-101"/>
     <use x="122.314453" xlink:href="#ArialMT-97"/>
     <use x="177.929688" xlink:href="#ArialMT-32"/>
     <use x="205.712891" xlink:href="#ArialMT-68"/>
     <use x="277.929688" xlink:href="#ArialMT-105"/>
     <use x="300.146484" xlink:href="#ArialMT-115"/>
     <use x="350.146484" xlink:href="#ArialMT-97"/>
     <use x="405.761719" xlink:href="#ArialMT-115"/>
     <use x="455.761719" xlink:href="#ArialMT-116"/>
     <use x="483.544922" xlink:href="#ArialMT-101"/>
     <use x="539.160156" xlink:href="#ArialMT-114"/>
    </g>
   </g>
   <g id="text_18">
    <!-- 4.2% -->
    <g style="fill:#262626;" transform="translate(957.879506 306.311631)scale(0.18 -0.18)">
     <use xlink:href="#ArialMT-52"/>
     <use x="55.615234" xlink:href="#ArialMT-46"/>
     <use x="83.398438" xlink:href="#ArialMT-50"/>
     <use x="139.013672" xlink:href="#ArialMT-37"/>
    </g>
   </g>
   <g id="text_19">
    <!-- Types -->
    <g style="fill:#262626;" transform="translate(881.494164 63.12)scale(0.18 -0.18)">
     <use xlink:href="#ArialMT-84"/>
     <use x="55.583984" xlink:href="#ArialMT-121"/>
     <use x="105.583984" xlink:href="#ArialMT-112"/>
     <use x="161.199219" xlink:href="#ArialMT-101"/>
     <use x="216.814453" xlink:href="#ArialMT-115"/>
    </g>
   </g>
  </g>
 </g>
</svg>
